<svg width="120" height="36" viewBox="0 0 595 178" fill="none" xmlns="http://www.w3.org/2000/svg">
  <g clip-path="url(#clip0_19225_30)">
    <path fill-rule="evenodd" clip-rule="evenodd"
      d="M530.365 42.7814H483.872C470.988 42.7814 462.655 54.1519 462.655 69.2512V177.893H470.25C480.274 177.893 488.407 169.744 488.407 159.678V76.1564C488.407 68.8522 489.376 67.6247 496.433 67.6247H530.365C557.332 67.6247 569.001 78.8264 569.001 99.0509V159.678C569.001 169.729 577.134 177.893 587.159 177.893H595V99.0509C595 63.4969 573.86 42.7814 530.365 42.7814ZM333.784 105.557V85.4093C333.784 72.1821 334.507 67.6247 350.22 67.6247H396.39C414.67 67.6247 414.655 73.425 414.624 85.2866C414.624 85.8236 414.624 86.376 414.624 86.9438C414.624 87.7264 414.624 88.4936 414.64 89.2302C414.716 100.401 414.747 105.542 395.683 105.542H333.784V105.557ZM395.021 42.7814H353.464C321.392 42.7814 308.754 57.5585 308.754 81.9107V135.495C308.754 159.847 321.392 177.877 353.464 177.877H431.951V172.522C431.951 161.627 423.142 152.788 412.272 152.788H353.464C339.365 152.788 333.784 145.239 333.784 135.004V125.751H394.775C431.229 125.751 438.27 122.099 438.27 87.0972C438.27 50.9141 430.26 42.7814 395.021 42.7814ZM233.587 152.804C254.236 152.804 259.017 143.551 259.017 121.623V67.64H206.451C184.342 67.64 179.238 77.7062 179.238 107.107C179.238 134.881 184.342 152.819 206.451 152.819H233.587V152.804ZM259.032 19.7334C259.032 8.83862 267.842 0 278.712 0H285.031V129.342C285.031 166.369 278.22 177.893 247.609 177.893H202.407C161.665 177.893 153.239 161.811 153.239 107.092C153.239 53.9985 164.909 42.7814 205.652 42.7814H259.032V19.7334Z"
      fill="#263A99" />
    <path fill-rule="evenodd" clip-rule="evenodd"
      d="M104.163 115.24V135.372C104.163 148.599 103.44 153.157 87.7275 153.157H47.1845C28.904 153.157 23.2923 147.356 23.3384 135.495C23.3384 134.958 23.3384 134.405 23.3384 133.837C23.3384 133.055 23.3384 132.288 23.323 131.551C23.2461 120.38 30.5491 115.24 49.6291 115.24H104.163ZM50.2748 178H84.4835C128.778 178 129.193 175.483 129.193 138.871V85.2711C129.193 60.9188 116.555 42.8887 84.4835 42.8887H5.99576V48.244C5.99576 59.1388 14.8055 67.9775 25.6753 67.9775H84.4835C98.5821 67.9775 104.163 75.5271 104.163 85.7621V95.015H50.5054C20.202 95.015 5.47302 99.864 0.906743 123.971C-0.307856 130.354 -0.246358 136.952 0.706872 143.382C4.56592 169.499 16.4659 178 50.2748 178Z"
      fill="#263A99" />
  </g>
  <defs>
    <clipPath id="clip0_19225_30">
      <rect width="595" height="178" fill="white" />
    </clipPath>
  </defs>
</svg>
