<svg width="40" height="40" viewBox="0 0 26 26" fill="none" xmlns="http://www.w3.org/2000/svg">
  <path fill-rule="evenodd" clip-rule="evenodd"
    d="M9.63113 26.0105H16.1867C24.6745 26.0105 24.753 25.5286 24.753 18.5305L24.753 8.2883C24.753 3.6327 22.3321 0.18757 16.1867 0.18757L1.14916 0.18757L1.14916 1.2126C1.14916 3.2948 2.83715 4.9828 4.91939 4.9828L16.1867 4.9828C18.8869 4.9828 19.9577 6.426 19.9577 8.3814V10.1505L9.67768 10.1505C3.87039 10.1505 1.05012 11.0776 0.174184 15.6845C-0.0578263 16.9047 -0.0453967 18.1658 0.13663 19.3945C0.876011 24.3853 3.15632 26.0105 9.63113 26.0105ZM19.9577 14.0146V17.8632C19.9577 20.3928 19.8181 21.2618 16.8075 21.2618L9.03913 21.2618C5.53646 21.2618 4.46256 20.1546 4.4695 17.886C4.46982 17.7825 4.47015 17.6767 4.47015 17.5684C4.47015 17.4181 4.46915 17.2728 4.46818 17.1325C4.45343 14.9984 5.8521 14.0146 9.50698 14.0146L19.9577 14.0146Z"
    fill="#263A99" />
</svg>
